<svg width="125" height="120" viewBox="0 0 125 120" fill="none" xmlns="http://www.w3.org/2000/svg">
<ellipse cx="62.5" cy="60" rx="62.5" ry="60" fill="#FF9600"/>
<path d="M16.924 46.19H3.236V39.7H38.282V46.19H24.594V81H16.924V46.19ZM73.3022 59.524C75.5835 60.2713 77.3929 61.53 78.7302 63.3C80.0675 65.0307 80.7362 67.194 80.7362 69.79C80.7362 73.3693 79.3595 76.1423 76.6062 78.109C73.8529 80.0363 69.8409 81 64.5702 81H44.0382V39.7H63.3902C68.2675 39.7 72.0239 40.6637 74.6592 42.591C77.2945 44.479 78.6122 47.0947 78.6122 50.438C78.6122 52.4833 78.1402 54.2927 77.1962 55.866C76.2522 57.4393 74.9542 58.6587 73.3022 59.524ZM51.7082 45.718V57.105H62.5642C65.2389 57.105 67.2842 56.633 68.7002 55.689C70.1555 54.7057 70.8832 53.2897 70.8832 51.441C70.8832 49.553 70.1555 48.137 68.7002 47.193C67.2842 46.2097 65.2389 45.718 62.5642 45.718H51.7082ZM64.0982 74.982C70.0375 74.982 73.0072 72.9957 73.0072 69.023C73.0072 65.0503 70.0375 63.064 64.0982 63.064H51.7082V74.982H64.0982ZM101.725 81.59C98.539 81.59 95.4513 81.1377 92.462 80.233C89.512 79.3283 87.1716 78.1287 85.441 76.634L88.096 70.675C89.7873 72.0123 91.8523 73.1137 94.291 73.979C96.769 74.805 99.247 75.218 101.725 75.218C104.793 75.218 107.074 74.7263 108.569 73.743C110.103 72.7597 110.87 71.4617 110.87 69.849C110.87 68.669 110.437 67.7053 109.572 66.958C108.746 66.1713 107.684 65.5617 106.386 65.129C105.088 64.6963 103.318 64.2047 101.076 63.654C97.9293 62.9067 95.3726 62.1593 93.406 61.412C91.4786 60.6647 89.807 59.5043 88.391 57.931C87.0143 56.3183 86.326 54.155 86.326 51.441C86.326 49.1597 86.9356 47.0947 88.155 45.246C89.4136 43.358 91.282 41.8633 93.76 40.762C96.2773 39.6607 99.3453 39.11 102.964 39.11C105.481 39.11 107.959 39.4247 110.398 40.054C112.837 40.6833 114.941 41.588 116.711 42.768L114.292 48.727C112.483 47.665 110.595 46.8587 108.628 46.308C106.661 45.7573 104.754 45.482 102.905 45.482C99.8763 45.482 97.6146 45.9933 96.12 47.016C94.6646 48.0387 93.937 49.3957 93.937 51.087C93.937 52.267 94.35 53.2307 95.176 53.978C96.0413 54.7253 97.123 55.3153 98.421 55.748C99.719 56.1807 101.489 56.6723 103.731 57.223C106.799 57.931 109.316 58.6783 111.283 59.465C113.25 60.2123 114.921 61.3727 116.298 62.946C117.714 64.5193 118.422 66.6433 118.422 69.318C118.422 71.5993 117.793 73.6643 116.534 75.513C115.315 77.3617 113.446 78.8367 110.929 79.938C108.412 81.0393 105.344 81.59 101.725 81.59Z" fill="#F2F2F2"/>
</svg>

